<?xml version="1.0" encoding="UTF-8" standalone="no"?>
<!DOCTYPE svg PUBLIC "-//W3C//DTD SVG 1.0//EN"
"http://www.w3.org/TR/2001/REC-SVG-20010904/DTD/svg10.dtd">
<!-- Created with Sodipodi ("http://www.sodipodi.com/") -->
<svg
   xmlns="http://www.w3.org/2000/svg"
   xmlns:xlink="http://www.w3.org/1999/xlink"
   version="1.0"
   x="0"
   y="0"
   width="744.094482"
   height="1052.36218"
   id="svg3825">
  <defs
     id="defs3827" />
  <g
     transform="matrix(1.800918,0,0,1.800918,-258.7905,-282.9682)"
     style="font-size:12;"
     id="layer1">
    <g
       id="g7459">
      <rect
         width="411.135895"
         height="580.70575"
         x="144.991119"
         y="162.541718"
         style="stroke-width:2.443293;"
         id="rect4795" />
      <path
         d="M 150.4661 511.1369 L 177.2694 489.1112 L 220.2693 472.555 L 248.6492 461.6161 L 262.9826 448.0164 L 283.6225 410.4694 L 308.2758 409.2868 L 309.1358 401.8956 L 295.3758 399.2348 L 291.0758 381.2004 L 290.5025 357.5487 L 284.1958 333.6014 L 287.0625 313.7931 L 298.5292 311.1322 L 303.4025 264.4202 L 321.7491 230.1252 L 355.5757 204.9953 L 388.5423 193.7607 L 435.8422 197.6041 L 479.7021 219.4819 L 511.5221 249.3422 L 510.3754 267.3766 L 526.4287 288.6631 L 527.862 330.9405 L 516.3954 382.383 L 507.5087 393.0262 L 498.9088 429.3907 L 492.8888 438.5557 L 484.5755 436.7819 L 468.5222 468.7116 L 458.4888 482.9027 L 486.2955 497.9806 L 524.422 522.2236 L 543.6287 555.336 L 551.082 572.7791 L 551.6553 737.6018 L 149.8928 737.6018 L 150.4661 511.1369 z "
         style="fill:#ffffff;fill-rule:evenodd;stroke:#000000;"
         id="path6567" />
      <path
         d="M 498.9088 392.4349 L 478.5555 449.199 L 455.6222 489.1112 L 417.4956 513.6499 L 364.4624 500.0501 L 333.7891 461.3205 L 314.8691 431.4602 L 311.4291 383.2699 L 312.2891 361.9834 L 325.7624 349.5662 L 331.7824 334.1927 L 333.2158 299.0108 L 348.4091 263.8289 L 388.2556 272.4026 L 443.0089 278.3155 L 480.2755 272.107 L 509.5154 282.7502 L 510.9487 335.9665 L 498.9088 392.4349 z "
         style="fill:none;fill-rule:evenodd;stroke:#000000;stroke-width:2;"
         id="path6569" />
      <path
         d="M 267.7125 452.0076 L 279.3225 499.1632 L 305.6958 572.6313 L 391.1223 559.1794 L 447.3089 574.9964 L 433.2622 503.0066 L 422.6556 511.2847 L 418.0689 526.067 L 410.9023 539.9624 L 403.7356 550.31 L 383.0957 552.0839 L 369.6223 543.2145 L 346.6891 524.8844 L 308.8491 474.9202 L 301.9691 460.4335 L 295.9492 444.4687 L 295.0892 430.5733 L 304.8358 428.7994 L 306.5558 413.4258 L 287.3492 415.0519 L 267.7125 452.0076 z "
         style="fill-rule:evenodd;stroke:#000000;"
         id="path6571" />
    </g>
  </g>
</svg>
